<svg width="618" height="618" viewBox="0 0 618 618" fill="none" xmlns="http://www.w3.org/2000/svg">
<g filter="url(#filter0_d_384_43)">
<path fill-rule="evenodd" clip-rule="evenodd" d="M282.418 35.0943C297.132 20.38 320.993 20.38 335.707 35.0943L554.027 253.414C568.741 268.128 568.741 291.989 554.027 306.703L335.707 525.023C320.993 539.737 297.132 539.737 282.418 525.023L64.0982 306.703C49.3839 291.989 49.3839 268.128 64.0982 253.414L282.418 35.0943Z" fill="white"/>
<path fill-rule="evenodd" clip-rule="evenodd" d="M193.669 362.129C193.669 374.419 178.781 380.594 170.068 371.881L89.976 291.789C83.5132 285.326 83.5132 274.824 89.976 268.332L170.068 188.24C178.781 179.527 193.669 185.701 193.669 197.992L193.686 251.212H280.212V164.657L226.998 164.669C215.526 164.669 209.383 151.7 215.699 142.887L217.246 141.068L297.338 60.976C303.801 54.5132 314.303 54.5132 320.794 60.976L400.886 141.068C409.599 149.781 403.425 164.669 391.134 164.669L337.915 164.657V251.212H424.47V197.998C424.47 186.526 437.438 180.383 446.228 186.699L448.041 188.246L528.162 268.338C534.625 274.801 534.625 285.303 528.162 291.794L448.041 371.886C439.357 380.599 424.47 374.425 424.47 362.134V308.915H337.915V395.441L391.129 395.458C402.6 395.458 408.743 408.427 402.427 417.24L400.881 419.059L320.789 499.151C314.326 505.613 303.824 505.613 297.332 499.151L217.24 419.059C208.527 410.345 214.701 395.458 226.992 395.458L280.212 395.441V308.915H193.686L193.669 362.129Z" fill="black"/>
</g>
<defs>
<filter id="filter0_d_384_43" x="0.4025" y="0.658594" width="617.32" height="617.32" filterUnits="userSpaceOnUse" color-interpolation-filters="sRGB">
<feFlood flood-opacity="0" result="BackgroundImageFix"/>
<feColorMatrix in="SourceAlpha" type="matrix" values="0 0 0 0 0 0 0 0 0 0 0 0 0 0 0 0 0 0 127 0" result="hardAlpha"/>
<feOffset dy="29.26"/>
<feGaussianBlur stdDeviation="26.33"/>
<feComposite in2="hardAlpha" operator="out"/>
<feColorMatrix type="matrix" values="0 0 0 0 0 0 0 0 0 0 0 0 0 0 0 0 0 0 0.65 0"/>
<feBlend mode="normal" in2="BackgroundImageFix" result="effect1_dropShadow_384_43"/>
<feBlend mode="normal" in="SourceGraphic" in2="effect1_dropShadow_384_43" result="shape"/>
</filter>
</defs>
</svg>
