<svg width="619" height="618" viewBox="0 0 619 618" fill="none" xmlns="http://www.w3.org/2000/svg">
<g filter="url(#filter0_d_384_84)">
<path fill-rule="evenodd" clip-rule="evenodd" d="M419.675 261.869C438.375 243.17 468.786 243.17 487.486 261.836C492.702 267.052 496.705 273.548 499.034 280.601L562.908 472.252C568.682 489.573 564.253 508.404 551.327 521.329C538.401 534.255 519.603 538.684 502.249 532.91L310.594 469.037C303.541 466.708 297.078 462.673 291.829 457.489C283.004 448.665 278.05 436.92 277.821 424.388C277.558 411.299 282.545 398.964 291.829 389.68L419.675 261.869ZM67.4698 37.4715C80.3955 24.5461 99.1936 20.1173 116.515 25.8911L308.104 89.6982C315.158 92.0602 321.653 96.0297 326.869 101.246C345.569 119.978 345.569 150.389 326.869 169.055L199.056 296.866C180.356 315.565 149.945 315.565 131.245 296.866C126.029 291.65 121.994 285.187 119.665 278.134L55.8892 86.516C50.1153 69.1946 54.5441 50.3969 67.4698 37.4715Z" fill="white"/>
<path fill-rule="evenodd" clip-rule="evenodd" d="M512.641 501.777L320.954 437.904C310.292 434.361 307.11 420.812 315.049 412.873L442.862 285.062C450.801 277.09 464.35 280.305 467.926 290.967L531.767 482.651C535.704 494.461 524.452 505.713 512.641 501.777ZM106.141 57.0134L297.763 120.82C308.425 124.363 311.64 137.912 303.668 145.884L175.855 273.662C167.916 281.634 154.367 278.419 150.824 267.757L87.0153 76.1391C83.0786 64.3291 94.3311 53.0767 106.141 57.0134Z" fill="black"/>
</g>
<defs>
<filter id="filter0_d_384_84" x="0.738438" y="0.000391006" width="617.32" height="617.32" filterUnits="userSpaceOnUse" color-interpolation-filters="sRGB">
<feFlood flood-opacity="0" result="BackgroundImageFix"/>
<feColorMatrix in="SourceAlpha" type="matrix" values="0 0 0 0 0 0 0 0 0 0 0 0 0 0 0 0 0 0 127 0" result="hardAlpha"/>
<feOffset dy="29.26"/>
<feGaussianBlur stdDeviation="26.33"/>
<feComposite in2="hardAlpha" operator="out"/>
<feColorMatrix type="matrix" values="0 0 0 0 0 0 0 0 0 0 0 0 0 0 0 0 0 0 0.65 0"/>
<feBlend mode="normal" in2="BackgroundImageFix" result="effect1_dropShadow_384_84"/>
<feBlend mode="normal" in="SourceGraphic" in2="effect1_dropShadow_384_84" result="shape"/>
</filter>
</defs>
</svg>
