<svg width="452" height="452" viewBox="0 0 452 452" fill="none" xmlns="http://www.w3.org/2000/svg">
<path d="M0 62C0 27.7584 27.7583 0 62 0H390C424.242 0 452 27.7583 452 62V390C452 424.242 424.242 452 390 452H62C27.7584 452 0 424.242 0 390V62Z" fill="url(#paint0_linear_12_12)"/>
<path d="M225.5 38C122.261 38 38 122.261 38 225.5C38 328.739 122.261 413 225.5 413C328.739 413 413 328.739 413 225.5C413 122.261 328.739 38 225.5 38ZM90.3785 225.5C-16.6559 227.018 107.079 151.107 133.648 126.816C144.275 116.947 162.494 119.984 170.085 132.889L217.15 214.113C221.704 221.705 221.704 230.814 217.15 238.405L170.085 319.63C162.494 333.294 144.275 335.571 132.889 324.943C107.079 299.134 197.413 223.982 90.3785 225.5ZM280.915 318.111L233.85 236.887C229.296 229.296 229.296 220.186 233.85 212.595L280.915 131.37C288.506 118.466 305.966 115.429 317.352 125.298C343.921 149.589 258.142 223.982 360.621 223.982C463.101 223.982 343.921 298.375 317.352 322.666C305.966 334.812 288.506 331.775 280.915 318.111Z" fill="white"/>
<defs>
<linearGradient id="paint0_linear_12_12" x1="226" y1="0" x2="226" y2="452" gradientUnits="userSpaceOnUse">
<stop stop-color="#0336FF"/>
<stop offset="1" stop-color="#050036"/>
</linearGradient>
</defs>
</svg>

